<svg width="256" height="256" viewBox="0 0 256 256" fill="none" xmlns="http://www.w3.org/2000/svg">
  <rect width="256" height="256" rx="48" fill="#0F172A"/>
  <path d="M74 72H182V108C182 136.719 158.719 160 130 160H126C97.2812 160 74 136.719 74 108V72Z" fill="#E2E8F0"/>
  <path d="M96 72H182V100H96V72Z" fill="#94A3B8"/>
  <path d="M128 64L160 88H96L128 64Z" fill="#CBD5E1"/>
  <path d="M74 102H118V158H74V102Z" fill="#CBD5E1"/>
  <path d="M160 112C176.569 112 190 125.431 190 142V170H160V112Z" fill="#CBD5E1"/>
  <path d="M74 170H190V184C190 190.627 184.627 196 178 196H86C79.3726 196 74 190.627 74 184V170Z" fill="#94A3B8"/>
  <path d="M153 123C162.389 123 170 130.611 170 140V146H153V123Z" fill="#0F172A"/>
</svg>
